<svg id="Layer_1" data-name="Layer 1" xmlns="http://www.w3.org/2000/svg" viewBox="0 0 200 200"><defs><style>.cls-1{fill:none;stroke-width:5.12px;}.cls-1,.cls-3{stroke:#662d91;stroke-miterlimit:10;}.cls-2,.cls-3{fill:#662d91;}.cls-3{stroke-width:1.28px;}</style></defs><title>Artboard 1</title><path class="cls-1" d="M156.2,71.12c-1.19,6.53-2.83,18.91,0,30.73.91,3.77,2.2,7.23,5.13,10.24,1.85,1.92,7.28,6.67,10.24,5.13,5.61-2.93,1.17-26.71,5.12-41,.26-.92.56-1.33.85-1.34,2.46-.05,11.41,31.19-.85,57.68A58,58,0,0,1,166.45,148c-1.71,1.8-9.18,9.42-25.61,15.36-14.65,5.31-18.76,2.67-23.15,4.17a10.36,10.36,0,0,0-2.82,1.55,12.9,12.9,0,0,0-4.76,9.65c.11,8.64,16.14,12.79,15.36,15.37-1,3.26-28.85,3.3-35.85-10.25-3-5.76-.49-10.71-5.12-15.36-3.74-3.76-8-3.16-15.37-5.13,0,0-8-2.13-20.49-10.24-23.08-15-29.75-46.47-30.73-51.22-3.3-16-1.13-29.11,0-35.85A101.44,101.44,0,0,1,28.15,35.26c4.06-7.54,7.72-14.36,15.37-20.48C48.25,11,59.93,1.65,74.25,4.53c12,2.41,21.64,12.52,25.61,25.61"/><path class="cls-1" d="M65.16,29.77a162.84,162.84,0,0,0-8.22,46C56.05,101,61,121.94,61.69,121.87c.34,0-.43-5.46-.14-15.36.09-3.36.79-22.87,6.87-30.84,2.6-3.4,6.52-5.13,7.9-5a6.91,6.91,0,0,1,3.73,1.53c11.33,9.24,2.56,42.47,12.89,49.92a6.89,6.89,0,0,0,8,.14c8.4-6.55-2.87-41-4.6-46.13"/><path class="cls-2" d="M92.31,63.44c-3.84,0-3.85,6,0,6S96.16,63.44,92.31,63.44Z"/><path class="cls-3" d="M108.89,73.76h6.41V58.86h3.45v14.9H127v4.48h-8.2v31c0,5.35.82,8.41,4.13,8.41a9.61,9.61,0,0,0,3.59-.58v4.21a9.08,9.08,0,0,1-4.28.86c-4.41,0-6.89-3.06-6.89-10.7V78.24h-6.41Z"/><path class="cls-3" d="M129.08,73.76h6.42V58.86h3.44v14.9h8.21v4.48h-8.21v31c0,5.35.83,8.41,4.14,8.41a9.64,9.64,0,0,0,3.59-.58v4.21a9.08,9.08,0,0,1-4.28.86c-4.41,0-6.89-3.06-6.89-10.7V78.24h-6.42Z"/></svg>