<?xml version="1.0" encoding="utf-8"?>
<!-- Generator: Adobe Illustrator 22.1.0, SVG Export Plug-In . SVG Version: 6.00 Build 0)  -->
<svg version="1.1" id="Layer_1" xmlns="http://www.w3.org/2000/svg" xmlns:xlink="http://www.w3.org/1999/xlink" x="0px" y="0px"
	 viewBox="0 0 200 200" style="enable-background:new 0 0 200 200;" xml:space="preserve">
<style type="text/css">
	.st0{fill:none;stroke:#FFFFFF;stroke-width:5.0818;stroke-miterlimit:10;}
	.st1{fill:none;stroke:#662D91;stroke-width:5.0818;stroke-miterlimit:10;}
	.st2{fill:#FFFFFF;}
	.st3{fill:#FFFFFF;stroke:#FFFFFF;stroke-width:1.2704;stroke-miterlimit:10;}
</style>
<g>
	<path class="st0" d="M156.2,71.4c-1.2,6.5-2.8,18.8,0,30.5c0.9,3.7,2.2,7.2,5.1,10.2c1.8,1.9,7.2,6.6,10.2,5.1
		c5.6-2.9,1.2-26.5,5.1-40.7c0.3-0.9,0.5-1.3,0.8-1.3c2.4,0,11.3,30.9-0.8,57.2c-4,8.6-8.9,14-10.2,15.2c-1.7,1.8-9.1,9.3-25.4,15.2
		c-14.5,5.3-18.6,2.6-23,4.1c-0.7,0.2-1.7,0.7-2.8,1.5c-3.4,2.6-4.8,7-4.7,9.6c0.1,8.6,16,12.7,15.2,15.2c-1,3.2-28.6,3.3-35.6-10.2
		c-3-5.7-0.5-10.6-5.1-15.2c-3.7-3.7-7.9-3.1-15.2-5.1c0,0-8-2.1-20.3-10.2c-22.9-14.9-29.5-46.1-30.5-50.8
		c-3.3-15.8-1.1-28.9,0-35.6c2.7-16.2,8.5-27.4,10.2-30.5c4-7.5,7.7-14.3,15.2-20.3c4.7-3.8,16.3-13,30.5-10.2
		c11.9,2.4,21.5,12.4,25.4,25.4"/>
	<path class="st0" d="M65.8,30.4c-3.4,10.1-7.5,25.8-8.2,45.6c-0.9,25.1,4.1,45.8,4.7,45.8c0.3,0-0.4-5.4-0.1-15.2
		c0.1-3.3,0.8-22.7,6.8-30.6c2.6-3.4,6.5-5.1,7.8-4.9c0,0,1.9,0.1,3.7,1.5c11.2,9.2,2.5,42.1,12.8,49.5c2.4,1.7,5.8,1.8,7.9,0.1
		c8.3-6.5-2.9-40.6-4.6-45.8"/>
	<path class="st1" d="M125.7,117.2"/>
	<path class="st2" d="M92.8,63.8c-3.8,0-3.8,5.9,0,5.9C96.6,69.7,96.6,63.8,92.8,63.8z"/>
	<g>
		<g>
			<path class="st3" d="M109.2,74h6.4V59.3h3.4V74h8.1v4.5H119v30.8c0,5.3,0.8,8.3,4.1,8.3c1,0,2.5-0.1,3.6-0.6v4.2
				c-1.2,0.7-2.8,0.9-4.2,0.9c-4.4,0-6.8-3-6.8-10.6v-33h-6.4V74z"/>
			<path class="st3" d="M129,74h6.4V59.3h3.4V74h8.1v4.5h-8.1v30.8c0,5.3,0.8,8.3,4.1,8.3c1,0,2.5-0.1,3.6-0.6v4.2
				c-1.2,0.7-2.8,0.9-4.2,0.9c-4.4,0-6.8-3-6.8-10.6v-33H129V74z"/>
		</g>
	</g>
</g>
</svg>
